<?xml version="1.0" standalone="no"?>
<!DOCTYPE svg PUBLIC "-//W3C//DTD SVG 20010904//EN"
 "http://www.w3.org/TR/2001/REC-SVG-20010904/DTD/svg10.dtd">
<svg version="1.0" xmlns="http://www.w3.org/2000/svg"
 width="600.000000pt" height="456.000000pt" viewBox="0 0 600.000000 456.000000"
 preserveAspectRatio="xMidYMid meet">
<metadata>
Created by potrace 1.11, written by Peter Selinger 2001-2013
</metadata>
<g transform="translate(0.000000,456.000000) scale(0.100000,-0.100000)"
fill="#000000" stroke="none">
<path d="M1413 4486 c-201 -97 -324 -200 -382 -317 -29 -60 -38 -94 -58 -224
-4 -27 -12 -48 -18 -46 -5 2 -16 38 -22 80 -7 42 -25 110 -39 151 -24 70 -107
245 -123 263 -4 4 -32 -43 -63 -105 -93 -189 -125 -315 -115 -456 8 -106 26
-170 69 -241 58 -96 94 -108 158 -54 35 29 35 29 14 -51 -10 -37 -14 -86 -12
-125 5 -75 20 -91 86 -91 l44 0 -100 -97 c-163 -160 -202 -243 -202 -433 0
-60 -4 -111 -8 -114 -5 -3 -14 12 -22 32 -39 108 -147 223 -314 333 -65 44
-123 79 -128 79 -14 0 1 -212 24 -325 33 -171 95 -290 195 -375 33 -28 35 -32
13 -26 -113 29 -320 68 -320 61 0 -1 9 -23 20 -48 11 -25 18 -52 14 -60 -20
-54 167 -315 289 -402 l27 -20 -126 4 -127 3 21 -36 c12 -21 22 -52 22 -71 0
-26 15 -53 69 -122 86 -111 175 -192 263 -237 l67 -35 -50 -10 c-27 -6 -59
-11 -69 -11 -27 0 -25 -12 6 -40 17 -17 23 -31 20 -46 -7 -25 16 -57 81 -117
114 -105 243 -178 353 -201 l65 -13 -30 -15 c-16 -8 -47 -21 -67 -27 l-38 -12
30 -26 c22 -18 29 -31 24 -45 -9 -29 46 -75 162 -135 136 -70 218 -94 324 -94
48 0 107 7 135 15 28 9 52 16 54 16 2 0 -41 -31 -97 -70 -55 -38 -103 -74
-107 -80 -3 -5 6 -15 20 -20 18 -7 25 -15 21 -25 -3 -8 -3 -22 0 -30 13 -34
257 -95 381 -95 132 0 257 48 338 130 33 33 48 57 49 77 1 16 9 41 18 55 l17
26 -56 37 c-58 38 -169 85 -203 85 -18 0 -18 2 5 48 43 86 58 257 31 360 -21
77 -79 176 -159 270 -62 73 -165 172 -179 172 -5 0 -9 -28 -28 -186 -13 -105
2 -297 30 -386 27 -87 90 -180 157 -231 l55 -41 -59 -12 c-32 -7 -85 -22 -117
-33 l-59 -21 19 21 c10 11 19 31 19 45 1 13 9 32 19 42 16 19 14 22 -46 84
-71 73 -132 112 -215 138 -49 15 -53 18 -30 24 62 15 142 167 158 300 18 148
-16 290 -118 489 l-56 110 -40 -78 c-91 -183 -127 -310 -127 -453 1 -145 35
-254 107 -332 l35 -40 -40 0 c-22 0 -54 -3 -72 -6 l-32 -7 7 34 c4 19 13 41
20 49 11 13 6 26 -30 82 -79 120 -178 196 -286 219 -86 18 -83 15 -59 49 l22
31 48 -45 c45 -42 51 -45 79 -35 39 14 134 116 165 178 67 131 62 373 -11 606
-14 44 -27 83 -30 88 -9 15 -140 -168 -190 -268 -57 -111 -75 -188 -74 -312 0
-62 -3 -114 -7 -117 -5 -3 -19 18 -32 47 -31 63 -118 159 -179 195 -36 21 -42
27 -26 30 70 11 105 57 94 123 l-5 36 31 -13 c39 -16 67 -9 120 27 140 96 197
232 197 474 0 112 -8 189 -33 308 l-11 49 -39 -38 -40 -39 30 72 c46 112 80
302 81 453 1 54 2 56 47 90 51 38 121 128 159 202 43 85 85 200 90 247 2 26 9
62 14 81 6 19 10 38 10 42 0 3 -35 -4 -77 -18 -43 -13 -80 -24 -82 -24 -2 0
22 27 53 61 98 106 164 270 191 472 8 61 13 112 12 113 -2 2 -53 -21 -114 -50z
m-353 -669 l51 1 -70 -49 c-38 -27 -87 -69 -109 -94 l-39 -44 30 120 30 120
28 -27 c24 -23 38 -28 79 -27z m-188 -1229 c-43 -63 -88 -156 -107 -221 -13
-44 -16 -88 -13 -188 2 -90 0 -125 -7 -113 -47 80 -95 141 -141 177 -50 38
-53 42 -30 45 13 2 31 11 40 21 19 21 40 164 34 232 -5 46 3 62 17 39 13 -21
90 -10 160 24 39 18 72 32 73 30 2 -1 -9 -22 -26 -46z"/>
<path d="M4474 4516 c3 -14 10 -64 15 -113 18 -172 91 -349 187 -452 31 -34
55 -61 53 -61 -2 0 -38 11 -79 24 -41 13 -76 23 -78 21 -2 -2 3 -26 12 -54 8
-29 13 -58 10 -65 -7 -18 40 -153 81 -236 45 -89 112 -178 167 -220 l45 -34
11 -151 c13 -164 29 -246 67 -343 14 -34 25 -65 25 -69 0 -4 -15 8 -34 26
l-33 32 -6 -33 c-4 -18 -13 -71 -22 -118 -20 -107 -20 -313 -1 -403 26 -121
85 -210 181 -276 53 -37 81 -43 122 -26 l33 14 -6 -38 c-4 -23 0 -50 9 -73 13
-31 22 -38 58 -45 l43 -8 -52 -34 c-66 -42 -137 -121 -170 -188 -14 -29 -29
-50 -33 -47 -4 2 -7 57 -6 122 1 103 -2 126 -26 195 -39 111 -113 236 -216
366 l-19 25 -30 -95 c-77 -241 -84 -478 -16 -610 31 -62 126 -164 165 -178 28
-10 34 -7 79 35 l48 45 21 -30 c24 -34 22 -36 -39 -46 -77 -12 -150 -55 -225
-130 -73 -73 -128 -161 -108 -173 16 -10 21 -77 6 -76 -7 1 -38 2 -69 3 l-56
1 37 41 c78 87 111 212 102 383 -6 121 -37 224 -109 374 l-50 104 -41 -74
c-104 -187 -141 -322 -135 -491 3 -101 6 -119 36 -180 40 -85 86 -145 118
-153 21 -5 16 -10 -38 -28 -84 -30 -141 -67 -205 -134 -56 -59 -62 -72 -39
-92 8 -6 12 -18 9 -26 -3 -9 4 -28 15 -43 l21 -28 -90 28 c-49 16 -98 29 -109
29 -31 0 -24 13 29 52 160 120 222 387 170 725 -7 40 -15 73 -19 73 -9 0 -183
-177 -221 -225 -49 -63 -97 -155 -113 -220 -29 -110 -16 -266 29 -358 19 -38
21 -47 9 -47 -32 0 -139 -43 -193 -77 -71 -45 -68 -40 -52 -66 8 -12 15 -37
17 -56 2 -25 15 -46 49 -81 135 -137 353 -165 628 -80 73 23 100 43 92 69 -4
12 4 22 25 32 l30 14 -105 74 c-58 41 -105 75 -105 77 0 1 21 -4 48 -12 26 -8
85 -15 132 -15 106 0 188 24 324 94 116 61 171 106 161 135 -4 15 3 27 26 45
l32 25 -24 7 c-13 4 -44 17 -69 28 l-45 19 65 14 c124 26 276 119 388 237 41
45 51 61 47 79 -4 17 1 30 19 48 31 28 33 40 6 40 -10 0 -42 5 -69 11 l-50 10
67 35 c88 45 177 126 263 237 52 67 69 97 69 120 0 18 9 47 20 65 11 18 20 35
20 38 0 3 -56 4 -125 3 l-125 -4 27 20 c122 87 309 348 289 402 -3 8 3 32 14
53 11 22 20 43 20 48 0 11 -147 -11 -252 -38 -43 -11 -79 -20 -82 -20 -2 0 24
28 58 63 70 69 123 167 151 276 30 119 58 391 40 391 -3 0 -51 -28 -106 -62
-171 -107 -303 -247 -344 -365 -13 -36 -14 -37 -19 -13 -3 14 -7 79 -8 146 -3
117 -4 122 -42 200 -32 66 -57 97 -148 187 l-108 107 43 0 c67 0 81 16 85 96
2 42 -2 92 -11 127 -8 31 -13 57 -11 57 1 0 20 -11 40 -25 20 -14 43 -25 50
-25 51 0 137 148 155 270 13 87 7 211 -15 290 -19 73 -78 210 -121 285 l-34
60 -54 -115 c-59 -125 -89 -211 -107 -305 -6 -33 -14 -69 -17 -79 -9 -32 -21
1 -32 91 -17 138 -69 235 -174 326 -87 75 -238 164 -351 207 -27 10 -28 9 -22
-14z m582 -683 c4 -16 15 -61 25 -102 11 -41 19 -77 19 -80 0 -3 -24 17 -52
45 -29 28 -74 66 -100 84 -27 18 -48 34 -48 35 0 1 21 2 46 2 33 0 51 5 67 21
28 29 35 28 43 -5z m231 -1263 c23 0 45 5 48 10 15 25 26 7 20 -32 -3 -24 -2
-83 4 -132 11 -97 27 -126 69 -126 21 0 15 -8 -47 -66 -39 -36 -83 -88 -98
-115 -16 -27 -32 -49 -36 -49 -5 0 -6 4 -2 9 3 6 6 65 6 133 1 166 -21 233
-139 416 -13 21 -9 20 59 -13 48 -23 88 -35 116 -35z"/>
<path d="M2845 4238 c-332 -37 -632 -184 -881 -432 -260 -259 -401 -558 -436
-928 l-12 -127 -121 -3 -121 -3 198 -270 c109 -148 202 -271 207 -273 7 -2
102 123 354 468 l55 75 -124 3 c-68 1 -124 6 -124 10 0 4 5 52 10 106 40 414
299 776 681 955 96 45 237 87 322 95 31 3 82 9 112 12 l55 5 0 160 0 159 -47
-1 c-27 -1 -84 -6 -128 -11z"/>
<path d="M3460 4124 c-106 -28 -180 -72 -265 -158 -149 -151 -203 -331 -160
-535 24 -115 69 -195 160 -286 123 -123 246 -175 413 -175 202 0 383 97 492
264 124 192 124 453 0 643 -76 115 -212 213 -346 248 -73 19 -221 19 -294 -1z
m110 -269 c0 -52 1 -55 25 -55 24 0 25 3 25 55 l0 55 35 0 35 0 0 -54 0 -54
38 -7 c52 -8 100 -39 112 -71 16 -41 12 -89 -10 -117 -23 -30 -25 -37 -7 -37
8 0 24 -11 37 -25 31 -33 38 -107 13 -155 -22 -42 -90 -80 -145 -80 l-38 0 0
-55 0 -55 -35 0 -35 0 0 50 c0 47 -2 50 -25 50 -23 0 -25 -3 -25 -50 0 -49 -1
-50 -29 -50 -29 0 -30 2 -33 53 l-3 52 -66 3 -66 3 6 37 c6 33 10 38 41 42
l35 5 3 154 c3 170 0 181 -54 181 -32 0 -34 2 -34 35 l0 35 70 0 70 0 0 55 c0
54 0 55 30 55 30 0 30 -1 30 -55z"/>
<path d="M3572 3658 l3 -63 49 3 c64 3 96 24 96 62 0 40 -32 60 -98 60 l-53 0
3 -62z"/>
<path d="M3570 3460 l0 -70 60 0 c70 0 115 19 123 52 14 51 -46 88 -140 88
l-43 0 0 -70z"/>
<path d="M397 3668 c-38 -137 -47 -199 -47 -329 0 -140 11 -202 52 -286 35
-72 134 -173 169 -173 36 0 84 61 104 132 23 81 32 251 16 315 -17 66 -73 184
-122 257 -48 69 -127 170 -139 174 -4 1 -19 -39 -33 -90z"/>
<path d="M5522 3705 c-81 -103 -151 -217 -184 -299 -31 -76 -33 -88 -33 -206
0 -102 4 -138 23 -197 23 -75 64 -123 104 -123 32 0 132 104 166 173 76 157
77 387 0 640 -11 37 -23 67 -26 66 -4 0 -26 -24 -50 -54z"/>
<path d="M4207 3103 c-80 -109 -170 -232 -200 -273 l-55 -75 124 -3 c68 -1
124 -6 124 -11 0 -5 -5 -55 -11 -112 -41 -407 -298 -768 -672 -944 -101 -48
-242 -90 -327 -99 -30 -3 -81 -8 -112 -11 l-58 -6 0 -160 0 -159 30 0 c63 0
228 22 310 41 275 64 509 196 716 403 261 260 401 560 436 928 l12 127 121 3
121 3 -198 270 c-109 149 -202 271 -207 273 -5 1 -74 -86 -154 -195z"/>
<path d="M2405 2658 c-27 -5 -88 -27 -135 -50 -65 -31 -101 -57 -155 -112
-110 -111 -161 -223 -171 -376 -23 -336 241 -621 576 -624 169 -1 303 54 420
173 138 140 196 308 170 492 -48 339 -363 562 -705 497z m175 -238 c0 -31 4
-40 18 -40 64 -1 148 -77 159 -144 l6 -36 -57 0 c-43 0 -56 3 -56 15 0 17 -35
55 -50 55 -6 0 -10 -26 -10 -59 l0 -58 38 -7 c157 -25 192 -209 56 -296 -27
-16 -58 -30 -71 -30 -20 0 -23 -5 -23 -40 l0 -40 -55 0 -55 0 0 33 c0 31 -5
36 -57 63 -62 32 -108 87 -119 142 l-6 32 54 0 c52 0 55 -1 71 -34 9 -19 25
-40 37 -46 19 -10 20 -8 20 58 l0 69 -35 6 c-176 29 -179 256 -5 308 38 11 40
14 40 51 l0 38 50 0 50 0 0 -40z"/>
<path d="M2442 2254 c-28 -19 -28 -49 0 -68 34 -24 38 -20 38 34 0 54 -4 58
-38 34z"/>
<path d="M2590 1981 c0 -54 2 -59 20 -54 33 9 61 52 50 74 -11 19 -41 39 -59
39 -7 0 -11 -24 -11 -59z"/>
<path d="M2090 1145 c0 -2 7 -23 16 -45 9 -22 13 -51 10 -65 -5 -18 7 -50 44
-121 116 -223 217 -322 380 -375 l55 -18 -47 0 c-152 -2 -337 -93 -513 -254
l-50 -45 27 -11 c19 -7 25 -15 21 -30 -7 -28 27 -47 117 -64 236 -47 406 -22
537 78 65 49 101 97 106 141 2 16 9 39 15 51 7 12 12 25 12 30 0 10 -150 83
-192 93 -31 7 -30 8 15 9 53 1 91 29 102 73 9 34 -20 163 -50 223 -69 141
-215 237 -456 298 -136 35 -149 38 -149 32z"/>
<path d="M3821 1128 c-239 -53 -396 -137 -476 -252 -68 -99 -108 -252 -80
-307 19 -37 43 -49 97 -50 l43 0 -56 -18 c-44 -14 -143 -60 -168 -78 -3 -2 2
-16 11 -31 9 -15 16 -39 16 -55 -1 -39 38 -91 105 -142 131 -100 301 -125 537
-78 90 17 124 36 117 65 -4 15 1 22 23 30 l29 10 -62 55 c-175 156 -350 241
-502 243 l-50 1 55 18 c163 53 264 152 380 375 34 66 49 104 44 118 -3 11 2
40 11 65 9 24 16 46 14 47 -2 2 -42 -5 -88 -16z"/>
<path d="M2934 512 c-53 -42 -60 -118 -15 -162 52 -52 113 -52 163 2 43 47 37
118 -16 160 -28 23 -104 23 -132 0z"/>
</g>
</svg>
