<?xml version="1.0" standalone="no"?>
<!DOCTYPE svg PUBLIC "-//W3C//DTD SVG 20010904//EN"
 "http://www.w3.org/TR/2001/REC-SVG-20010904/DTD/svg10.dtd">
<svg version="1.0" xmlns="http://www.w3.org/2000/svg"
 width="626.000000pt" height="626.000000pt" viewBox="0 0 626.000000 626.000000"
 preserveAspectRatio="xMidYMid meet">
<metadata>
Created by potrace 1.11, written by Peter Selinger 2001-2013
</metadata>
<g transform="translate(0.000000,626.000000) scale(0.100000,-0.100000)"
fill="#000000" stroke="none">
<path d="M2882 5799 c-528 -51 -1040 -260 -1442 -588 -85 -69 -294 -277 -369
-366 -370 -441 -588 -1000 -617 -1582 l-7 -133 -224 0 -224 0 33 -44 c18 -24
41 -55 50 -67 9 -13 55 -76 102 -139 47 -63 109 -148 138 -188 29 -40 91 -124
138 -187 88 -118 154 -209 224 -307 44 -62 59 -69 76 -38 6 11 39 58 73 103
34 46 96 129 137 186 41 56 89 121 106 144 33 45 216 293 268 365 17 23 52 70
78 105 l48 62 -226 3 -225 2 6 88 c29 430 148 783 373 1107 336 486 884 822
1447 890 72 8 165 18 208 21 l77 6 0 284 0 284 -82 -1 c-46 -1 -120 -5 -166
-10z"/>
<path d="M4010 5609 c-404 -67 -739 -373 -847 -774 -24 -89 -27 -117 -27 -265
0 -146 3 -176 26 -261 101 -375 384 -658 757 -756 142 -38 332 -43 473 -13
237 50 425 162 592 350 116 131 211 336 236 508 12 86 12 258 0 342 -11 77
-60 230 -94 298 -150 296 -446 515 -766 568 -94 15 -265 17 -350 3z m110 -504
l0 -95 45 0 45 0 0 95 0 95 60 0 59 0 3 -97 c2 -79 6 -98 18 -98 34 -1 107
-19 145 -35 82 -36 115 -91 115 -190 0 -69 -15 -106 -60 -144 -18 -14 -25 -26
-18 -26 8 0 35 -13 61 -29 64 -41 87 -90 87 -183 -1 -159 -80 -235 -277 -268
l-73 -12 0 -94 0 -94 -60 0 -60 0 0 95 0 95 -45 0 -45 0 0 -95 0 -95 -60 0
-60 0 0 95 0 95 -114 0 c-63 0 -117 3 -119 8 -3 4 0 36 6 72 l12 65 60 5 60 5
3 284 c3 332 6 321 -90 321 l-58 0 0 65 0 65 120 0 120 0 0 95 0 95 60 0 60 0
0 -95z"/>
<path d="M4120 4755 l0 -118 83 6 c127 9 187 43 187 109 0 79 -49 111 -177
116 l-93 4 0 -117z"/>
<path d="M4120 4396 l0 -126 93 0 c123 1 193 27 221 83 16 34 17 42 4 75 -23
60 -76 83 -209 90 l-109 5 0 -127z"/>
<path d="M5498 4097 c-7 -13 -74 -106 -148 -206 -168 -226 -271 -366 -380
-516 -47 -64 -106 -144 -131 -178 l-47 -62 225 -3 224 -2 -6 -93 c-11 -152
-35 -316 -61 -417 -100 -382 -283 -701 -558 -975 -137 -137 -246 -223 -391
-312 -307 -187 -609 -280 -1007 -308 l-88 -7 0 -285 0 -286 133 7 c582 29
1138 246 1583 618 94 79 292 277 361 363 362 448 571 991 599 1563 l7 132 223
0 223 0 -47 64 c-26 35 -85 116 -132 180 -47 64 -114 156 -150 204 -63 86
-157 213 -263 358 -29 39 -70 96 -92 127 -22 31 -45 56 -52 57 -7 0 -18 -11
-25 -23z"/>
<path d="M2090 2975 c-178 -25 -346 -99 -500 -221 -169 -133 -289 -316 -357
-544 -26 -89 -28 -106 -27 -275 0 -166 2 -187 27 -270 97 -322 290 -550 578
-684 287 -134 615 -128 904 14 275 136 468 371 553 675 25 87 27 110 26 275 0
174 -1 184 -33 285 -79 255 -231 456 -456 601 -113 73 -257 124 -405 144 -125
17 -184 17 -310 0z m248 -436 l3 -66 62 -13 c137 -28 243 -136 255 -261 l5
-49 -95 0 -95 0 -6 29 c-7 35 -61 91 -88 91 -18 0 -19 -8 -19 -104 l0 -104 48
-7 c65 -10 160 -50 195 -83 75 -69 98 -204 54 -304 -43 -96 -160 -190 -254
-204 l-43 -6 0 -69 0 -69 -100 0 -100 0 0 70 c0 58 -3 70 -16 70 -9 0 -44 13
-78 30 -67 31 -147 106 -181 167 -18 31 -45 115 -45 137 0 3 45 6 99 6 98 0
99 0 105 -26 10 -37 54 -92 88 -110 l28 -15 0 120 0 120 -57 12 c-110 22 -194
83 -228 166 -24 57 -19 155 11 218 36 77 133 153 217 170 56 12 57 13 57 79 0
34 3 66 7 70 4 4 43 5 88 4 l80 -3 3 -66z"/>
<path d="M2102 2250 c-64 -39 -64 -103 0 -136 53 -28 58 -22 58 71 0 94 -3 98
-58 65z"/>
<path d="M2360 1755 c0 -94 2 -106 16 -101 9 3 22 6 29 6 23 0 82 58 89 86 12
46 -34 95 -101 109 l-33 7 0 -107z"/>
</g>
</svg>
